<svg width="70" height="63" viewBox="0 0 70 63" fill="none" xmlns="http://www.w3.org/2000/svg">
<path d="M52.2338 4.27735L51.9442 8.44087L19.0811 13.0642C14.4079 13.7189 10.8293 17.5573 10.4994 22.2658L8.83986 45.9868L3.41683 46.7465C1.52755 47.0114 -0.126537 45.4722 0.00818296 43.5679L2.04242 14.4537C2.37234 9.74519 5.9509 5.90679 10.6242 5.25207L47.6907 0.0389507C50.2098 -0.310809 52.4136 1.74327 52.2338 4.27735Z" fill="#52C2EC"/>
<path d="M51.9442 8.44114L51.3096 17.5279L27.4981 20.8715C22.8248 21.5314 19.2462 25.365 18.9163 30.0731L17.8917 44.7128L8.83984 45.9871L10.4994 22.2661C10.8293 17.5576 14.4078 13.7192 19.0811 13.0645L51.9442 8.44114Z" fill="#367DC3"/>
<path d="M17.8917 44.7125L17.2568 53.804L11.8737 54.5589C9.98477 54.8286 8.33037 53.2843 8.46509 51.38L8.83981 45.9867L17.8917 44.7125Z" fill="#52C2EC"/>
<path d="M60.6911 12.0898L60.4015 16.2482L51.3099 17.5278L51.9445 8.44111L56.148 7.85135C58.6671 7.50159 60.8709 9.55567 60.6911 12.0898Z" fill="#52C2EC"/>
<path d="M60.4012 16.2483L57.862 52.5948L55.028 49.9811C54.5935 49.5781 54.0747 49.2771 53.5093 49.0998C52.9439 48.9225 52.346 48.8734 51.7592 48.9561L17.2568 53.8044L17.8917 44.7129L43.3023 41.144C43.8887 41.0612 44.4861 41.1097 45.0514 41.2861C45.6167 41.4625 46.1358 41.7623 46.5711 42.1638L49.4053 44.7827L51.3096 17.528L60.4012 16.2483Z" fill="#367DC3"/>
<path d="M69.1077 19.9017L66.2789 60.4066L63.445 57.7877C63.0098 57.3859 62.4909 57.0855 61.9256 56.9083C61.3604 56.7311 60.7629 56.6815 60.1762 56.7631L20.2907 62.3711C18.4014 62.6361 16.7474 61.0965 16.8821 59.1922L17.2568 53.8041L51.7592 48.9561C52.346 48.8733 52.9438 48.9223 53.5092 49.0995C54.0747 49.2768 54.5935 49.5778 55.028 49.9807L57.8619 52.5948L60.4011 16.2482L64.5646 15.6633C67.0837 15.3084 69.2875 17.3625 69.1077 19.9017Z" fill="#52C2EC"/>
</svg>
